<svg width="1692" height="363" viewBox="0 0 1692 363" fill="none" xmlns="http://www.w3.org/2000/svg">
<path d="M153.297 2.18457C54.5657 17.5968 -13.2277 110.471 2.18457 209.203C17.5968 307.934 110.471 375.728 209.203 360.315C307.934 344.903 375.728 252.029 360.315 153.297C344.903 54.5657 252.029 -13.2277 153.297 2.18457ZM156.951 25.5918C168.199 23.8361 179.365 23.3279 190.289 23.9603C175.985 41.611 154.422 59.7711 121.968 73.3613C91.27 86.2218 59.7875 99.4326 35.6187 121.249C55.9538 72.1091 100.669 34.3777 156.951 25.5918ZM25.5918 205.549C24.2691 197.075 23.6606 188.646 23.7054 180.331C26.6313 172.117 30.354 164.631 34.9014 157.819C55.6025 126.845 92.2874 111.479 131.122 95.2147C175.359 76.6921 201.612 50.2587 216.944 27.8201C225.132 29.7428 233.12 32.2964 240.819 35.4585C238.73 42.0428 235.359 50.4815 229.934 59.8884C218.281 80.0864 194.475 108.991 147.25 131.948C115.893 147.19 76.8827 166.167 53.8396 208.788C47.449 220.611 42.4501 233.824 38.8064 248.576C32.5071 235.256 27.9778 220.834 25.5918 205.549ZM57.421 278.579C67.6692 197.002 111.726 175.558 157.624 153.24C199.521 132.864 225.502 108.068 241.617 85.579C234.822 123.23 217.376 159.078 189.498 192.539C160.922 226.828 132.596 268.63 139.246 318.677C139.92 323.763 140.952 328.841 142.328 333.889C108.683 325.258 78.7922 305.659 57.421 278.579ZM207.691 207.706C257.401 148.059 268.216 89.6991 268.544 51.2477C268.548 50.8875 268.543 50.5525 268.547 50.1922C295.069 67.8718 316.198 93.4785 328.131 124.225C326.603 134.019 323.563 147.801 317.473 162.934C301.976 201.44 275.05 230.244 237.408 248.541C211.891 260.952 183.908 276.23 161.969 302.961C162.318 267.408 183.901 236.248 207.691 207.706ZM205.56 336.906C193.131 338.847 180.799 339.261 168.77 338.31C168.474 337.564 168.189 336.818 167.917 336.069C185.551 304.879 212.693 286.903 247.761 269.859C300.122 244.398 326.005 204.151 338.624 173.78C342.458 253.099 285.754 324.388 205.56 336.906Z" fill="#F0F0F0"/>
<path d="M509.917 302.083V69.4791H653.134V94.7333H537.829V172.49H643.83V197.744H537.829V276.829H654.796V302.083H509.917Z" fill="#F0F0F0"/>
<path d="M744.673 302.083C735.369 302.083 728.169 299.536 723.074 294.441C718.2 289.345 715.764 282.367 715.764 273.506V162.521H666.917V139.593H715.764V81.7739H742.015V139.593H795.181V162.521H742.015V269.519C742.015 276.165 745.227 279.487 751.651 279.487H787.871V302.083H744.673Z" fill="#F0F0F0"/>
<path d="M824.41 302.083V69.4791H850.661V165.511H855.313C857.528 160.638 860.851 156.097 865.282 151.887C869.934 147.457 875.804 143.802 882.893 140.922C890.204 138.042 899.397 136.602 910.474 136.602C922.658 136.602 933.512 139.26 943.038 144.577C952.785 149.672 960.539 157.204 966.299 167.173C972.058 176.92 974.938 189.104 974.938 203.725V302.083H948.687V205.719C948.687 189.547 944.589 177.806 936.392 170.496C928.417 163.185 917.562 159.53 903.828 159.53C888.099 159.53 875.251 164.625 865.282 174.816C855.535 185.006 850.661 200.181 850.661 220.34V302.083H824.41Z" fill="#F0F0F0"/>
<path d="M1089.34 306.735C1072.95 306.735 1058.55 303.302 1046.14 296.434C1033.74 289.345 1024.1 279.487 1017.23 266.86C1010.37 254.233 1006.93 239.613 1006.93 222.998V219.01C1006.93 202.174 1010.37 187.443 1017.23 174.816C1024.1 162.189 1033.63 152.441 1045.81 145.574C1057.99 138.485 1071.95 134.941 1087.68 134.941C1102.96 134.941 1116.48 138.264 1128.22 144.909C1139.96 151.334 1149.15 160.638 1155.8 172.822C1162.44 185.006 1165.77 199.294 1165.77 215.688V227.65H1033.18C1033.85 245.151 1039.5 258.885 1050.13 268.854C1060.76 278.601 1074.05 283.475 1090 283.475C1103.96 283.475 1114.7 280.263 1122.24 273.839C1129.77 267.414 1135.53 259.772 1139.52 250.91L1162.11 261.876C1158.79 268.743 1154.14 275.611 1148.16 282.478C1142.4 289.345 1134.75 295.105 1125.23 299.757C1115.92 304.409 1103.96 306.735 1089.34 306.735ZM1033.51 206.051H1139.18C1138.3 190.987 1133.09 179.246 1123.57 170.828C1114.26 162.41 1102.3 158.201 1087.68 158.201C1072.84 158.201 1060.65 162.41 1051.13 170.828C1041.6 179.246 1035.73 190.987 1033.51 206.051Z" fill="#F0F0F0"/>
<path d="M1198.26 302.083V139.593H1223.85V159.53H1228.5C1231.38 152.441 1235.81 147.235 1241.79 143.913C1247.78 140.59 1255.64 138.928 1265.39 138.928H1284.66V162.853H1263.73C1251.98 162.853 1242.46 166.176 1235.15 172.822C1228.06 179.246 1224.52 189.326 1224.52 203.06V302.083H1198.26Z" fill="#F0F0F0"/>
<path d="M1378.82 306.735C1362.43 306.735 1348.03 303.302 1335.63 296.434C1323.22 289.345 1313.58 279.487 1306.72 266.86C1299.85 254.233 1296.41 239.613 1296.41 222.998V219.01C1296.41 202.174 1299.85 187.443 1306.72 174.816C1313.58 162.189 1323.11 152.441 1335.29 145.574C1347.48 138.485 1361.43 134.941 1377.16 134.941C1392.45 134.941 1405.96 138.264 1417.7 144.909C1429.44 151.334 1438.64 160.638 1445.28 172.822C1451.93 185.006 1455.25 199.294 1455.25 215.688V227.65H1322.67C1323.33 245.151 1328.98 258.885 1339.61 268.854C1350.25 278.601 1363.54 283.475 1379.49 283.475C1393.44 283.475 1404.19 280.263 1411.72 273.839C1419.25 267.414 1425.01 259.772 1429 250.91L1451.59 261.876C1448.27 268.743 1443.62 275.611 1437.64 282.478C1431.88 289.345 1424.24 295.105 1414.71 299.757C1405.41 304.409 1393.44 306.735 1378.82 306.735ZM1323 206.051H1428.67C1427.78 190.987 1422.57 179.246 1413.05 170.828C1403.74 162.41 1391.78 158.201 1377.16 158.201C1362.32 158.201 1350.14 162.41 1340.61 170.828C1331.08 179.246 1325.21 190.987 1323 206.051Z" fill="#F0F0F0"/>
<path d="M1537.59 306.735C1526.29 306.735 1515.99 304.742 1506.69 300.754C1497.38 296.767 1490.07 291.007 1484.76 283.475C1479.44 275.943 1476.78 266.75 1476.78 255.895C1476.78 244.818 1479.44 235.736 1484.76 228.647C1490.07 221.336 1497.38 215.909 1506.69 212.365C1515.99 208.599 1526.4 206.716 1537.92 206.716H1592.75V194.753C1592.75 183.234 1589.32 174.151 1582.45 167.505C1575.8 160.859 1565.84 157.536 1552.54 157.536C1539.47 157.536 1529.28 160.749 1521.97 167.173C1514.66 173.376 1509.68 181.794 1507.02 192.427L1482.43 184.452C1485.09 175.369 1489.3 167.173 1495.06 159.863C1500.82 152.331 1508.46 146.349 1517.99 141.919C1527.73 137.267 1539.36 134.941 1552.88 134.941C1573.7 134.941 1589.87 140.368 1601.39 151.223C1612.91 161.856 1618.67 176.92 1618.67 196.415V269.851C1618.67 276.497 1621.77 279.82 1627.97 279.82H1642.93V302.083H1620C1612.69 302.083 1606.82 300.09 1602.39 296.102C1597.96 291.893 1595.74 286.355 1595.74 279.487V277.826H1591.75C1589.32 282.035 1585.99 286.466 1581.79 291.118C1577.8 295.548 1572.26 299.203 1565.17 302.083C1558.08 305.185 1548.89 306.735 1537.59 306.735ZM1540.58 284.14C1556.09 284.14 1568.6 279.598 1578.13 270.516C1587.88 261.211 1592.75 248.252 1592.75 231.637V227.982H1538.92C1528.51 227.982 1519.87 230.308 1513 234.96C1506.36 239.391 1503.03 246.148 1503.03 255.23C1503.03 264.313 1506.47 271.402 1513.33 276.497C1520.42 281.592 1529.51 284.14 1540.58 284.14Z" fill="#F0F0F0"/>
<path d="M1665.59 302.083V69.4791H1691.84V302.083H1665.59Z" fill="#F0F0F0"/>
</svg>
